<?xml version="1.0" encoding="UTF-8" standalone="no"?>
<!-- Created with Inkscape (http://www.inkscape.org/) -->

<svg
   xmlns:dc="http://purl.org/dc/elements/1.1/"
   xmlns:cc="http://creativecommons.org/ns#"
   xmlns:rdf="http://www.w3.org/1999/02/22-rdf-syntax-ns#"
   xmlns:svg="http://www.w3.org/2000/svg"
   xmlns="http://www.w3.org/2000/svg"
   xmlns:sodipodi="http://sodipodi.sourceforge.net/DTD/sodipodi-0.dtd"
   xmlns:inkscape="http://www.inkscape.org/namespaces/inkscape"
   width="20.714668mm"
   height="7.0775914mm"
   viewBox="0 0 73.398431 25.078079"
   id="svg2"
   version="1.1"
   inkscape:version="0.91 r13725"
   sodipodi:docname="ppm.svg">
  <defs
     id="defs4" />
  <sodipodi:namedview
     id="base"
     pagecolor="#ffffff"
     bordercolor="#666666"
     borderopacity="1.0"
     inkscape:pageopacity="0.0"
     inkscape:pageshadow="2"
     inkscape:zoom="2.8"
     inkscape:cx="-14.182625"
     inkscape:cy="-19.516578"
     inkscape:document-units="px"
     inkscape:current-layer="layer1"
     showgrid="false"
     fit-margin-top="0"
     fit-margin-left="0"
     fit-margin-right="0"
     fit-margin-bottom="0"
     inkscape:window-width="1280"
     inkscape:window-height="712"
     inkscape:window-x="0"
     inkscape:window-y="0"
     inkscape:window-maximized="1" />
  <metadata
     id="metadata7">
    <rdf:RDF>
      <cc:Work
         rdf:about="">
        <dc:format>image/svg+xml</dc:format>
        <dc:type
           rdf:resource="http://purl.org/dc/dcmitype/StillImage" />
        <dc:title></dc:title>
      </cc:Work>
    </rdf:RDF>
  </metadata>
  <g
     inkscape:label="Layer 1"
     inkscape:groupmode="layer"
     id="layer1"
     transform="translate(-11.729358,-11.80998)">
    <g
       transform="translate(-23.571428,-160)"
       style="font-style:normal;font-variant:normal;font-weight:normal;font-stretch:normal;font-size:40px;line-height:125%;font-family:'Permanent Marker';-inkscape-font-specification:'Permanent Marker, Normal';text-align:start;letter-spacing:0px;word-spacing:0px;writing-mode:lr-tb;text-anchor:start;fill:#ffffff;fill-opacity:1;stroke:none;stroke-width:1px;stroke-linecap:butt;stroke-linejoin:miter;stroke-opacity:1"
       id="flowRoot4136">
      <path
         d="m 49.011719,171.92713 q 1.640625,0.19531 2.929687,0.66406 1.289063,0.46875 2.1875,1.25 0.625,0.97656 1.171875,2.10937 0.585938,1.13282 0.859375,2.38282 0.3125,1.21093 0.273438,2.5 0,1.28906 -0.546875,2.61718 -1.132813,1.40625 -2.773438,2.30469 -1.601562,0.85938 -3.476562,1.40625 -1.875,0.54688 -3.90625,0.9375 -1.992188,0.39063 -3.90625,0.78125 0.03906,0.89844 0,1.91406 0,0.97657 -0.195313,1.99219 -0.15625,0.97656 -0.507812,1.91406 -0.351563,0.9375 -0.9375,1.71875 -0.664063,0 -1.367188,0.15625 -0.703125,0.19532 -1.25,0.3125 -0.273437,-0.15625 -0.507812,-0.3125 -0.195313,-0.11718 -0.585938,-0.15625 0.07813,-0.39062 -0.195312,-0.78125 -0.273438,-0.42968 -0.546875,-0.85937 -0.273438,-0.42969 -0.390625,-0.82031 -0.07813,-0.39063 0.390625,-0.74219 -0.273438,-0.27344 -0.273438,-0.70313 0.273438,-0.46875 0.46875,-1.28906 0.234375,-0.82031 0.351563,-1.60156 0.15625,-0.82031 0.07813,-1.48438 -0.07813,-0.66406 -0.78125,-0.97656 0.03906,-0.0781 0.15625,-0.0781 0.117187,0 0.234375,-0.0391 -0.3125,-0.23437 -0.390625,-0.66406 -0.03906,-0.42969 -0.273438,-0.74219 0.07813,-0.19531 0.117188,-0.35156 0.03906,-0.15625 0.273437,-0.11719 -0.117187,-0.70312 0,-1.32812 0.15625,-0.625 0.429688,-1.17188 0.273437,-0.58593 0.664062,-1.13281 0.390625,-0.54687 0.742188,-1.09375 0.273437,-0.0391 0.3125,0.0781 0.07813,0.11718 0.273437,-0.0391 0.507813,-0.39062 0.703125,-0.82031 0.195313,-0.42969 0.195313,-0.97656 0.273437,-0.82031 0.664062,-1.64063 0.390625,-0.85937 0.859375,-1.5625 0.46875,-0.70312 1.015625,-1.25 0.585938,-0.54687 1.210938,-0.82031 0.46875,-0.39062 1.171875,-0.70312 0.703125,-0.35157 1.523437,-0.50782 0.820313,-0.19531 1.640625,-0.19531 0.859375,-0.0391 1.5625,0.15625 0.195313,0.0781 0.195313,-0.0781 0.03906,-0.15625 0.15625,-0.15625 z m -1.601563,9.33593 q 0.976563,-0.42968 2.070313,-0.66406 1.132812,-0.27344 1.875,-0.97656 -0.46875,-0.42969 -1.367188,-0.74219 -0.898437,-0.35156 -1.953125,-0.42969 -1.054687,-0.0781 -2.148437,0.19532 -1.054688,0.23437 -1.835938,0.9375 -0.234375,0.70312 -0.390625,1.13281 -0.15625,0.39062 -0.429687,0.97656 0.07813,0.19531 0.234375,0.3125 0.195312,0.0781 0.273437,0.27344 0.898438,-0.46875 1.796875,-0.50781 0.9375,-0.0781 1.875,-0.50782 z"
         style="font-style:normal;font-variant:normal;font-weight:normal;font-stretch:normal;font-size:40px;line-height:125%;font-family:'Permanent Marker';-inkscape-font-specification:'Permanent Marker, Normal';text-align:start;writing-mode:lr-tb;text-anchor:start;fill:#ffffff"
         id="path4138"
         inkscape:connector-curvature="0" />
      <path
         d="m 70.027344,171.92713 q 1.640625,0.19531 2.929687,0.66406 1.289063,0.46875 2.1875,1.25 0.625,0.97656 1.171875,2.10937 0.585938,1.13282 0.859375,2.38282 0.3125,1.21093 0.273438,2.5 0,1.28906 -0.546875,2.61718 -1.132813,1.40625 -2.773438,2.30469 -1.601562,0.85938 -3.476562,1.40625 -1.875,0.54688 -3.90625,0.9375 -1.992188,0.39063 -3.90625,0.78125 0.03906,0.89844 0,1.91406 0,0.97657 -0.195313,1.99219 -0.15625,0.97656 -0.507812,1.91406 -0.351563,0.9375 -0.9375,1.71875 -0.664063,0 -1.367188,0.15625 -0.703125,0.19532 -1.25,0.3125 -0.273437,-0.15625 -0.507812,-0.3125 -0.195313,-0.11718 -0.585938,-0.15625 0.07813,-0.39062 -0.195312,-0.78125 -0.273438,-0.42968 -0.546875,-0.85937 -0.273438,-0.42969 -0.390625,-0.82031 -0.07813,-0.39063 0.390625,-0.74219 -0.273438,-0.27344 -0.273438,-0.70313 0.273438,-0.46875 0.46875,-1.28906 0.234375,-0.82031 0.351563,-1.60156 0.15625,-0.82031 0.07813,-1.48438 -0.07813,-0.66406 -0.78125,-0.97656 0.03906,-0.0781 0.15625,-0.0781 0.117187,0 0.234375,-0.0391 -0.3125,-0.23437 -0.390625,-0.66406 -0.03906,-0.42969 -0.273438,-0.74219 0.07813,-0.19531 0.117188,-0.35156 0.03906,-0.15625 0.273437,-0.11719 -0.117187,-0.70312 0,-1.32812 0.15625,-0.625 0.429688,-1.17188 0.273437,-0.58593 0.664062,-1.13281 0.390625,-0.54687 0.742188,-1.09375 0.273437,-0.0391 0.3125,0.0781 0.07813,0.11718 0.273437,-0.0391 0.507813,-0.39062 0.703125,-0.82031 0.195313,-0.42969 0.195313,-0.97656 0.273437,-0.82031 0.664062,-1.64063 0.390625,-0.85937 0.859375,-1.5625 0.46875,-0.70312 1.015625,-1.25 0.585938,-0.54687 1.210938,-0.82031 0.46875,-0.39062 1.171875,-0.70312 0.703125,-0.35157 1.523437,-0.50782 0.820313,-0.19531 1.640625,-0.19531 0.859375,-0.0391 1.5625,0.15625 0.195313,0.0781 0.195313,-0.0781 0.03906,-0.15625 0.15625,-0.15625 z m -1.601563,9.33593 q 0.976563,-0.42968 2.070313,-0.66406 1.132812,-0.27344 1.875,-0.97656 -0.46875,-0.42969 -1.367188,-0.74219 -0.898437,-0.35156 -1.953125,-0.42969 -1.054687,-0.0781 -2.148437,0.19532 -1.054688,0.23437 -1.835938,0.9375 -0.234375,0.70312 -0.390625,1.13281 -0.15625,0.39062 -0.429687,0.97656 0.07813,0.19531 0.234375,0.3125 0.195312,0.0781 0.273437,0.27344 0.898438,-0.46875 1.796875,-0.50781 0.9375,-0.0781 1.875,-0.50782 z"
         style="font-style:normal;font-variant:normal;font-weight:normal;font-stretch:normal;font-size:40px;line-height:125%;font-family:'Permanent Marker';-inkscape-font-specification:'Permanent Marker, Normal';text-align:start;writing-mode:lr-tb;text-anchor:start;fill:#ffffff"
         id="path4140"
         inkscape:connector-curvature="0" />
      <path
         d="m 103.34766,195.44275 q -0.39063,0.19531 -0.74219,0.35156 -0.3125,0.15625 -0.74219,0.15625 -1.52344,-1.13281 -1.60156,-3.94531 -0.0391,-2.8125 1.21094,-7.14844 0.19531,-0.11718 0.19531,-0.46875 l -0.35156,-0.39062 q -0.15625,0 -0.3125,0.0391 -0.11719,0.0391 -0.19532,0.27344 -1.015621,0.74219 -2.226559,1.5625 -1.210937,0.78125 -2.539062,1.48437 -1.289063,0.66407 -2.65625,1.09375 -1.328125,0.42969 -2.617188,0.42969 -3.28125,0 -4.921875,-3.32031 l -0.3125,-0.58594 -0.3125,0.50781 q -0.117187,0.15625 -0.351562,0.66407 -0.234375,0.46875 -0.46875,1.09375 -0.234375,0.625 -0.429688,1.28906 -0.15625,0.625 -0.117187,1.09375 -0.351563,0.35156 -0.742188,0.82031 -0.390625,0.46875 -0.585937,1.05469 -0.07813,0.3125 0.07813,0.58594 -0.07813,0.35156 -0.351563,0.54687 -0.15625,0.19531 -0.351562,0.39063 -0.15625,0.15625 -0.273438,0.35156 -0.07813,0.19531 -0.117187,0.39062 0,0.19532 -0.03906,0.39063 0,0.27344 -0.07813,0.50781 -0.664062,1.36719 -1.054687,1.75781 -0.390625,0.42969 -1.054688,0.42969 -0.3125,0 -1.015625,-0.11719 -0.507812,-0.54687 -0.9375,-1.48437 -0.390625,-0.97656 -0.625,-2.07031 -0.195312,-1.09375 -0.195312,-2.1875 0.03906,-1.13282 0.390625,-1.95313 0,-0.0391 0.3125,-0.78125 0.3125,-0.74219 0.78125,-1.91406 0.507812,-1.17188 1.132812,-2.57813 0.625,-1.44531 1.25,-2.77343 0.625,-1.36719 1.171875,-2.5 0.585938,-1.13282 0.976563,-1.71875 0.3125,-0.46875 0.546875,-0.85938 0.273437,-0.42969 0.507812,-0.82031 0.703125,-1.21094 1.328125,-1.99219 0.664063,-0.82031 1.914063,-1.28906 0.859375,0.35156 1.25,0.82031 l 0.07813,0.42969 q 0.15625,0.39062 0.46875,0.39062 0.429687,0.11719 0.703125,0.23438 0.3125,0.0781 0.664062,0.15625 0.273438,0.3125 0.507813,0.74219 0.3125,0.46875 0.585937,0.9375 0.3125,0.42968 0.46875,0.89843 0.195313,0.42969 0.195313,0.89844 0.03906,0.46875 -0.15625,0.97656 l 0.03906,0.39063 q 0.195313,0.35156 0.07813,0.97656 -0.03906,0.27344 -0.03906,0.58594 0,0.27344 0.07813,0.625 0.703125,0.54687 1.25,0.54687 0.625,0 1.132812,-0.27343 0.546875,-0.3125 1.015625,-0.625 0.3125,-0.23438 0.625,-0.39063 0.3125,-0.19531 0.625,-0.23437 0.703125,-0.66407 1.25,-1.17188 0.585938,-0.50781 1.210938,-1.01562 1.171873,-0.9375 2.265623,-2.03125 1.09375,-1.09375 1.75782,-2.73438 0.39062,-0.23437 0.82031,-0.23437 0.42969,0 0.89844,0.19531 0.46875,0.19531 0.89843,0.39062 0.11719,0.0781 0.19532,0.11719 0.11718,0.0391 0.19531,0.0781 0,0.39062 0.3125,0.66406 0.15625,0.11719 0.19531,0.15625 0.0391,0.0391 0.11719,0.0781 0.58594,0.3125 0.74219,0.625 0.27343,0.89844 0.97656,1.36719 -0.0781,0.39063 0,0.74219 0.11719,0.3125 0.27344,0.66406 0.0391,0.11719 0.0781,0.23438 0.0391,0.11718 0.11719,0.27343 l -0.74219,-0.0781 0.11719,0.74219 q 0.0781,0.54687 -0.11719,1.21093 -0.15625,0.66407 -0.39062,1.05469 0.0391,1.01563 0.0391,1.60156 0.0391,0.54688 -0.0391,1.05469 -0.0781,0.46875 -0.23438,0.89844 -0.11719,0.42969 -0.35156,0.9375 0.15625,2.5 -0.58594,4.57031 -0.70312,2.03125 -1.48437,3.82813 -0.0781,0.19531 -0.19532,0.39062 -0.0781,0.19531 -0.15625,0.39063 -0.35156,0.11718 -0.625,0.27343 -0.27343,0.11719 -0.58593,0.27344 z"
         style="font-style:normal;font-variant:normal;font-weight:normal;font-stretch:normal;font-size:40px;line-height:125%;font-family:'Permanent Marker';-inkscape-font-specification:'Permanent Marker, Normal';text-align:start;writing-mode:lr-tb;text-anchor:start;fill:#ffffff"
         id="path4142"
         inkscape:connector-curvature="0" />
    </g>
  </g>
</svg>
